<svg width="16" height="19" viewBox="0 0 16 19" fill="none" xmlns="http://www.w3.org/2000/svg">
<path fill-rule="evenodd" clip-rule="evenodd" d="M3 8.33334V5.83334C3 3.07192 5.23858 0.833344 8 0.833344C10.7614 0.833344 13 3.07192 13 5.83334V8.33334C14.3807 8.33334 15.5 9.45263 15.5 10.8333V15.8333C15.5 17.2141 14.3807 18.3333 13 18.3333H3C1.61929 18.3333 0.5 17.2141 0.5 15.8333V10.8333C0.5 9.45263 1.61929 8.33334 3 8.33334ZM4.66667 5.83334C4.66667 3.99239 6.15905 2.50001 8 2.50001C9.84095 2.50001 11.3333 3.99239 11.3333 5.83334V8.33334H4.66667V5.83334ZM8 11.6667C8.46024 11.6667 8.83333 12.0398 8.83333 12.5V14.1667C8.83333 14.6269 8.46024 15 8 15C7.53976 15 7.16667 14.6269 7.16667 14.1667V12.5C7.16667 12.0398 7.53976 11.6667 8 11.6667Z" fill="#07C2FA"/>
</svg>
