<svg width="16" height="22" viewBox="0 0 16 22" fill="none" xmlns="http://www.w3.org/2000/svg">
<path d="M7.11 22C6.99404 21.9998 6.879 21.9795 6.77 21.94C6.55974 21.863 6.38141 21.7177 6.26356 21.5273C6.1457 21.3369 6.09515 21.1125 6.12 20.89L6.89 13.8H0.999998C0.818328 13.8002 0.640016 13.751 0.484212 13.6576C0.328408 13.5642 0.200998 13.4301 0.115667 13.2697C0.0303355 13.1093 -0.00969343 12.9287 -0.000121294 12.7473C0.00945084 12.5659 0.0682626 12.3905 0.169998 12.24L8.06 0.439975C8.18478 0.255313 8.36768 0.11763 8.57965 0.0487842C8.79163 -0.0200612 9.02052 -0.0161226 9.23 0.059975C9.43138 0.134738 9.60333 0.272359 9.7204 0.452465C9.83747 0.632571 9.89343 0.845586 9.88 1.05998L9.11 8.19998H15C15.1817 8.1997 15.36 8.24892 15.5158 8.34235C15.6716 8.43578 15.799 8.56989 15.8843 8.73027C15.9697 8.89065 16.0097 9.07125 16.0001 9.25266C15.9905 9.43408 15.9317 9.60946 15.83 9.75998L7.94 21.56C7.84827 21.6957 7.72461 21.8068 7.57988 21.8835C7.43516 21.9602 7.2738 22.0002 7.11 22Z" fill="#56D741"/>
</svg>
