<svg width="18" height="14" viewBox="0 0 18 14" fill="none" xmlns="http://www.w3.org/2000/svg">
<path d="M3.16669 0.333344H14.8334C16.214 0.333344 17.3332 1.45251 17.3334 2.83312C17.2303 2.83309 17.1254 2.85232 17.0239 2.89295L9.61901 5.85489C9.22165 6.01383 8.77839 6.01383 8.38104 5.85489L0.976179 2.89295C0.874609 2.85232 0.769781 2.83309 0.666687 2.83312C0.666807 1.45251 1.78605 0.333344 3.16669 0.333344Z" fill="#07C2FA"/>
<path d="M0.666687 4.5642V11.1667C0.666687 12.5474 1.78597 13.6667 3.16669 13.6667H14.8334C16.2141 13.6667 17.3334 12.5474 17.3334 11.1667V4.5642L10.238 7.40235C9.44329 7.72023 8.55675 7.72023 7.76205 7.40235L0.666687 4.5642Z" fill="#07C2FA"/>
</svg>
