<svg width="56" height="111" viewBox="0 0 56 111" fill="none" xmlns="http://www.w3.org/2000/svg">
<path opacity="0.05" d="M0 83.4038C0.00278219 78.8797 1.11324 74.425 3.23439 70.4289C5.35553 66.4328 8.42284 63.0169 12.1684 60.4794V6.59076C12.1684 2.24491 13.6351 -1.44907 16.6229 -4.43685C19.6107 -7.42463 23.3047 -9 27.6505 -9C32.0507 -9 35.7447 -7.47895 38.7325 -4.49117C41.7202 -1.44907 43.2413 2.19058 43.2413 6.53644V60.4251C47.0982 63.0869 50.0317 66.455 52.1503 70.4205C54.2689 74.3861 55.301 78.732 55.301 83.3495C55.301 88.3472 54.0516 93.019 51.6071 97.2562C49.1625 101.493 45.7945 104.861 41.5573 107.306C37.3201 109.751 32.7026 111 27.6505 111C22.6528 111 18.0353 109.751 13.7981 107.306C9.56089 104.861 6.19285 101.493 3.69398 97.2562C1.19511 93.019 0 88.4015 0 83.4038ZM9.56089 83.4038C9.56089 88.4559 11.3536 92.8017 14.8846 96.3871C18.4156 99.9724 22.7071 101.765 27.7048 101.765C32.7569 101.765 37.1028 99.9724 40.7424 96.3327C44.3821 92.6931 46.2291 88.4015 46.2291 83.4581C46.2291 80.0901 45.3599 76.9393 43.6215 74.0602C41.8832 71.1811 39.493 68.9538 36.4509 67.3784L34.9298 66.6179C34.3866 66.4006 34.115 65.8574 34.115 65.0425V6.59076C34.115 4.85242 33.5174 3.3857 32.268 2.19058C31.0186 1.0498 29.4975 0.45224 27.6505 0.45224C25.9122 0.45224 24.3911 1.0498 23.1417 2.19058C21.8923 3.33137 21.2947 4.7981 21.2947 6.59076V64.9339C21.2947 65.7487 21.0231 66.292 20.5342 66.5093L19.0675 67.2698C16.0797 68.8452 13.7438 71.0724 12.0598 73.9516C10.3757 76.8307 9.56089 79.9271 9.56089 83.4038ZM13.7981 83.4038C13.7981 87.2607 15.1019 90.5745 17.7637 93.2906C20.4255 96.0068 23.5763 97.3649 27.3246 97.3649C31.0729 97.3649 34.278 96.0068 37.0484 93.2906C39.8189 90.5745 41.177 87.2607 41.177 83.4581C41.177 80.0358 39.9819 76.9937 37.646 74.3861C35.3101 71.7786 32.431 70.2032 29.0629 69.7687V29.7868C29.0629 29.4608 28.9 29.0806 28.5197 28.7546C28.3693 28.5859 28.1853 28.4504 27.9795 28.3569C27.7737 28.2634 27.5506 28.2138 27.3246 28.2114C26.8357 28.2114 26.4554 28.3744 26.1838 28.646C25.9122 28.9719 25.7492 29.2979 25.7492 29.7868V69.66C22.4355 70.1489 19.6107 71.67 17.2748 74.2775C14.9389 76.9393 13.7981 79.9271 13.7981 83.4038Z" fill="white"/>
</svg>
