<svg width="12" height="24" viewBox="0 0 12 24" fill="none" xmlns="http://www.w3.org/2000/svg">
<path d="M0.910034 17.965C0.910546 17.1322 1.11496 16.3121 1.50543 15.5765C1.8959 14.8409 2.46054 14.2121 3.15003 13.745V3.82499C3.15003 3.02499 3.42003 2.34499 3.97003 1.79499C4.52003 1.24499 5.20003 0.954987 6.00003 0.954987C6.81003 0.954987 7.49004 1.23499 8.04004 1.78499C8.59004 2.34499 8.87004 3.01499 8.87004 3.81499V13.735C9.58004 14.225 10.12 14.845 10.51 15.575C10.9 16.305 11.09 17.105 11.09 17.955C11.09 18.875 10.86 19.735 10.41 20.515C9.96003 21.295 9.34003 21.915 8.56003 22.365C7.78003 22.815 6.93003 23.045 6.00003 23.045C5.08003 23.045 4.23003 22.815 3.45003 22.365C2.67003 21.915 2.05003 21.295 1.59003 20.515C1.13003 19.735 0.910034 18.885 0.910034 17.965ZM2.67003 17.965C2.67003 18.895 3.00003 19.695 3.65003 20.355C4.30003 21.015 5.09003 21.345 6.01003 21.345C6.94003 21.345 7.74003 21.015 8.41003 20.345C9.08003 19.675 9.42003 18.885 9.42003 17.975C9.42003 17.355 9.26003 16.775 8.94003 16.245C8.62003 15.715 8.18004 15.305 7.62004 15.015L7.34003 14.875C7.24003 14.835 7.19003 14.735 7.19003 14.585V3.82499C7.19003 3.50499 7.08003 3.23499 6.85003 3.01499C6.62003 2.80499 6.34003 2.69499 6.00003 2.69499C5.68003 2.69499 5.40003 2.80499 5.17003 3.01499C4.94003 3.22499 4.83003 3.49499 4.83003 3.82499V14.565C4.83003 14.715 4.78003 14.815 4.69003 14.855L4.42003 14.995C3.87003 15.285 3.44003 15.695 3.13003 16.225C2.82003 16.755 2.67003 17.325 2.67003 17.965ZM3.45003 17.965C3.45003 18.675 3.69003 19.285 4.18003 19.785C4.67003 20.285 5.25003 20.535 5.94003 20.535C6.63003 20.535 7.22003 20.285 7.73003 19.785C8.24003 19.285 8.49003 18.675 8.49003 17.975C8.49003 17.345 8.27003 16.785 7.84003 16.305C7.41003 15.825 6.88003 15.535 6.26003 15.455V8.09499C6.26003 8.03499 6.23003 7.96499 6.16003 7.90499C6.13234 7.87393 6.09847 7.84899 6.06059 7.83177C6.0227 7.81455 5.98164 7.80543 5.94003 7.80499C5.85003 7.80499 5.78003 7.83499 5.73003 7.88499C5.68003 7.94499 5.65003 8.00499 5.65003 8.09499V15.435C5.04003 15.525 4.52003 15.805 4.09003 16.285C3.66003 16.775 3.45003 17.325 3.45003 17.965Z" fill="white"/>
</svg>
