<svg width="12" height="24" viewBox="0 0 12 24" fill="none" xmlns="http://www.w3.org/2000/svg">
<path d="M0.910004 17.965C0.910516 17.1322 1.11493 16.3121 1.5054 15.5765C1.89587 14.8409 2.46051 14.2121 3.15 13.745V3.82499C3.15 3.02499 3.42 2.34499 3.97 1.79499C4.52 1.24499 5.2 0.954987 6 0.954987C6.81 0.954987 7.49 1.23499 8.04 1.78499C8.59 2.34499 8.87 3.01499 8.87 3.81499V13.735C9.58 14.225 10.12 14.845 10.51 15.575C10.9 16.305 11.09 17.105 11.09 17.955C11.09 18.875 10.86 19.735 10.41 20.515C9.96 21.295 9.34 21.915 8.56 22.365C7.78 22.815 6.93 23.045 6 23.045C5.08 23.045 4.23 22.815 3.45 22.365C2.67 21.915 2.05 21.295 1.59 20.515C1.13 19.735 0.910004 18.885 0.910004 17.965ZM2.67 17.965C2.67 18.895 3 19.695 3.65 20.355C4.3 21.015 5.09 21.345 6.01 21.345C6.94 21.345 7.74 21.015 8.41 20.345C9.08 19.675 9.42 18.885 9.42 17.975C9.42 17.355 9.26 16.775 8.94 16.245C8.62 15.715 8.18 15.305 7.62 15.015L7.34 14.875C7.24 14.835 7.19 14.735 7.19 14.585V3.82499C7.19 3.50499 7.08 3.23499 6.85 3.01499C6.62 2.80499 6.34 2.69499 6 2.69499C5.68 2.69499 5.4 2.80499 5.17 3.01499C4.94 3.22499 4.83 3.49499 4.83 3.82499V14.565C4.83 14.715 4.78 14.815 4.69 14.855L4.42 14.995C3.87 15.285 3.44 15.695 3.13 16.225C2.82 16.755 2.67 17.325 2.67 17.965ZM3.45 17.965C3.45 18.675 3.69 19.285 4.18 19.785C4.67 20.285 5.25 20.535 5.94 20.535C6.63 20.535 7.22 20.285 7.73 19.785C8.24 19.285 8.49 18.675 8.49 17.975C8.49 17.345 8.27 16.785 7.84 16.305C7.41 15.825 6.88 15.535 6.26 15.455V8.09499C6.26 8.03499 6.23 7.96499 6.16 7.90499C6.13231 7.87393 6.09844 7.84899 6.06056 7.83177C6.02267 7.81455 5.98161 7.80543 5.94 7.80499C5.85 7.80499 5.78 7.83499 5.73 7.88499C5.68 7.94499 5.65 8.00499 5.65 8.09499V15.435C5.04 15.525 4.52 15.805 4.09 16.285C3.66 16.775 3.45 17.325 3.45 17.965Z" fill="#4286E0"/>
</svg>
