<svg width="18" height="12" viewBox="0 0 18 12" fill="none" xmlns="http://www.w3.org/2000/svg">
<path d="M2.57888 8.65232C2.81692 9.04621 2.69058 9.5585 2.29668 9.79654C1.90279 10.0346 1.3905 9.90825 1.15246 9.51435C0.814042 8.95437 0.584439 8.47181 0.449427 8.16031C0.256104 7.71426 0.284154 7.21207 0.519672 6.7915C0.879058 6.14973 1.78694 4.66611 3.18613 3.33307C4.58211 2.00308 6.54638 0.75 8.99979 0.75C11.4532 0.75 13.4175 2.00308 14.8135 3.33307C16.2126 4.66611 17.1205 6.14973 17.4799 6.7915C17.7154 7.21207 17.7435 7.71426 17.5502 8.1603C17.4151 8.47181 17.1855 8.95437 16.8471 9.51435C16.6091 9.90825 16.0968 10.0346 15.7029 9.79654C15.309 9.5585 15.1827 9.04621 15.4207 8.65232C15.6929 8.20192 15.8818 7.81241 15.9963 7.55369C15.6582 6.95778 14.8574 5.67693 13.6638 4.53975C12.4309 3.36513 10.8581 2.41667 8.99979 2.41667C7.1415 2.41667 5.56868 3.36513 4.33578 4.53975C3.14218 5.67693 2.34138 6.95778 2.00325 7.55369C2.11781 7.81241 2.30669 8.20192 2.57888 8.65232Z" fill="#667185"/>
<path fill-rule="evenodd" clip-rule="evenodd" d="M8.99979 3.66667C6.69861 3.66667 4.83313 5.53215 4.83313 7.83333C4.83313 10.1345 6.69861 12 8.99979 12C11.301 12 13.1665 10.1345 13.1665 7.83333C13.1665 5.53215 11.301 3.66667 8.99979 3.66667ZM6.49979 7.83333C6.49979 6.45262 7.61908 5.33333 8.99979 5.33333C10.3805 5.33333 11.4998 6.45262 11.4998 7.83333C11.4998 9.21405 10.3805 10.3333 8.99979 10.3333C7.61908 10.3333 6.49979 9.21405 6.49979 7.83333Z" fill="#667185"/>
</svg>
